<svg xmlns="http://www.w3.org/2000/svg" width="18" height="20" viewBox="0 0 18 20">
    <path fill="#FFF" fill-rule="evenodd" d="M13.667 16.439a6.705 6.705 0 0 1-4.65 1.97 6.705 6.705 0 0 1-4.65-1.97 6.7 6.7 0 0 1-1.975-4.77 6.7 6.7 0 0 1 1.975-4.768l4.65-4.65 4.65 4.65a6.7 6.7 0 0 1 1.975 4.769 6.7 6.7 0 0 1-1.975 4.769m1.125-10.664L9.017 0 3.242 5.775A8.28 8.28 0 0 0 .8 11.67a8.28 8.28 0 0 0 2.442 5.894A8.286 8.286 0 0 0 9.004 20h.025a8.289 8.289 0 0 0 5.763-2.436 8.281 8.281 0 0 0 2.442-5.894c0-2.227-.867-4.32-2.442-5.895" opacity=".3"/>
</svg>
