<svg xmlns="http://www.w3.org/2000/svg" width="21" height="20" viewBox="0 0 21 20">
    <path fill="#FFF" fill-rule="evenodd" d="M10.798 14.504A4.508 4.508 0 0 1 6.295 10a4.508 4.508 0 0 1 4.503-4.503A4.508 4.508 0 0 1 15.3 10a4.508 4.508 0 0 1-4.502 4.504m9.446-5.056h-3.868a5.58 5.58 0 0 0-1.245-3.002l1.967-1.967a.552.552 0 0 0-.78-.78L14.35 5.665a5.58 5.58 0 0 0-3-1.245V.55a.552.552 0 1 0-1.104 0v3.87a5.581 5.581 0 0 0-3.001 1.245L5.278 3.698a.552.552 0 0 0-.78.781l1.967 1.967a5.58 5.58 0 0 0-1.246 3.002H1.352a.552.552 0 1 0 0 1.104h3.867a5.58 5.58 0 0 0 1.246 3.001l-1.968 1.968a.552.552 0 1 0 .78.78l1.968-1.967a5.582 5.582 0 0 0 3 1.246v3.868a.552.552 0 1 0 1.104 0V15.58a5.58 5.58 0 0 0 3.001-1.246l1.968 1.968a.55.55 0 1 0 .78-.78l-1.967-1.969a5.58 5.58 0 0 0 1.245-3h3.868a.552.552 0 0 0 0-1.105" opacity=".3"/>
</svg>
