<svg xmlns="http://www.w3.org/2000/svg" width="25" height="20" viewBox="0 0 25 20">
    <g fill="#FFF" fill-rule="evenodd" opacity=".3">
        <path d="M10.088 9.325a.595.595 0 0 0 0 1.19h9.013a.595.595 0 0 0 0-1.19h-9.013zM23.99 9.325h-2.295a.595.595 0 1 0 0 1.19h2.296a.595.595 0 0 0 0-1.19M17.612 7.124c0 .328.267.595.596.595h2.296a.595.595 0 1 0 0-1.19h-2.296a.595.595 0 0 0-.596.595M15.509 5.05h2.296a.595.595 0 1 0 0-1.19H15.51a.595.595 0 0 0 0 1.19M21.974 12.072H9.9a4.557 4.557 0 0 0-3.682 1.875 3.761 3.761 0 0 0 .832 5.247 3.129 3.129 0 0 0 4.363-.692 2.62 2.62 0 0 0-.58-3.657 2.216 2.216 0 0 0-3.092.49 1.893 1.893 0 0 0 .419 2.64c.31.225.687.336 1.07.307a.595.595 0 1 0-.082-1.188.428.428 0 0 1-.289-.083.7.7 0 0 1-.154-.977 1.025 1.025 0 0 1 1.43-.227 1.43 1.43 0 0 1 .315 1.995 1.936 1.936 0 0 1-2.701.428 2.569 2.569 0 0 1-.568-3.584c.639-.879 1.663-1.381 2.758-1.384h12.034a.595.595 0 0 0 0-1.19M15.421 7.72a.595.595 0 0 0 0-1.191H5.197A3.364 3.364 0 0 1 2.48 5.145a2.57 2.57 0 0 1 .568-3.585c.418-.303.93-.426 1.44-.345.51.081.958.356 1.261.774a1.43 1.43 0 0 1-.316 1.994 1.025 1.025 0 0 1-1.43-.226.701.701 0 0 1 .154-.977h.002a.437.437 0 0 1 .162-.074.595.595 0 0 0-.264-1.161c-.216.05-.418.14-.598.271l-.003.003a1.892 1.892 0 0 0-.416 2.637 2.217 2.217 0 0 0 3.093.49 2.622 2.622 0 0 0 .58-3.657A3.104 3.104 0 0 0 4.673.04a3.104 3.104 0 0 0-2.325.558 3.76 3.76 0 0 0-.832 5.247 4.557 4.557 0 0 0 3.681 1.875h10.224z"/>
    </g>
</svg>
